<svg width="189" height="150" viewBox="0 0 189 150" fill="none" xmlns="http://www.w3.org/2000/svg">
<path d="M10.712 39.1105C10.712 30.4492 12.952 23.5425 17.432 18.3905C21.912 13.1638 28.3334 10.5505 36.696 10.5505C37.9654 10.5505 39.4587 10.6625 41.176 10.8865C42.968 11.1105 44.648 11.4092 46.216 11.7825C47.784 12.0812 48.9414 12.4545 49.688 12.9025L46.888 18.5025C44.872 16.1878 42.2587 14.4705 39.048 13.3505C35.8374 12.1558 32.776 11.9692 29.864 12.7905C26.8027 13.6865 24.6 15.3665 23.256 17.8305C21.912 20.2945 21.0907 23.0572 20.792 26.1185C20.568 29.1052 20.456 31.9798 20.456 34.7425V39.8945H43.752V41.4625H20.456V76.6305C20.456 79.9158 20.6427 82.7905 21.016 85.2545C21.3894 87.7185 21.576 88.9505 21.576 88.9505H9.59203C9.59203 88.9505 9.7787 87.7185 10.152 85.2545C10.5254 82.7905 10.712 79.9158 10.712 76.6305V41.4625H5.00003V39.8945H10.712V39.1105ZM49.1447 39.8945C49.1447 39.8945 48.958 41.1265 48.5847 43.5905C48.2113 46.0545 48.0247 48.9665 48.0247 52.3265V76.6305C48.0247 79.9158 48.2113 82.7905 48.5847 85.2545C48.958 87.7185 49.1447 88.9505 49.1447 88.9505H37.1607C37.1607 88.9505 37.3473 87.7185 37.7207 85.2545C38.094 82.7905 38.2807 79.9158 38.2807 76.6305V52.3265C38.2807 48.9665 38.094 46.0545 37.7207 43.5905C37.3473 41.1265 37.1607 39.8945 37.1607 39.8945H49.1447ZM43.0967 28.4705C44.5153 28.4705 45.6727 28.9558 46.5687 29.9265C47.5393 30.8225 48.0247 31.9425 48.0247 33.2865C48.0247 34.6305 47.5393 35.7878 46.5687 36.7585C45.6727 37.7292 44.5153 38.2145 43.0967 38.2145C41.7527 38.2145 40.5953 37.7292 39.6247 36.7585C38.7287 35.7878 38.2807 34.6305 38.2807 33.2865C38.2807 31.9425 38.7287 30.8225 39.6247 29.9265C40.5953 28.9558 41.7527 28.4705 43.0967 28.4705ZM56.905 41.4625H51.417V39.8945C53.5824 39.8945 55.673 39.1105 57.689 37.5425C59.705 35.9745 61.385 33.9585 62.729 31.4945C64.1477 29.0305 64.969 26.5292 65.193 23.9905H66.761V39.8945H76.729V41.4625H66.761V73.8305C66.761 75.2492 66.7984 77.0785 66.873 79.3185C67.0224 81.4838 67.5824 83.2012 68.553 84.4705C69.2997 85.5158 70.233 86.1132 71.353 86.2625C72.5477 86.4118 73.705 86.2625 74.825 85.8145C76.0197 85.3665 77.0277 84.8438 77.849 84.2465V85.1425C76.5797 86.6358 75.0117 87.6438 73.145 88.1665C71.353 88.6892 69.7104 88.9505 68.217 88.9505C60.6757 88.9505 56.905 83.8358 56.905 73.6065V41.4625Z" fill="#F5F1DD"/>
<path d="M101.984 39.8945C101.984 39.8945 101.797 41.1265 101.424 43.5905C101.051 46.0545 100.864 48.9665 100.864 52.3265V76.6305C100.864 79.9158 101.051 82.7905 101.424 85.2545C101.797 87.7185 101.984 88.9505 101.984 88.9505H90C90 88.9505 90.1867 87.7185 90.56 85.2545C90.9333 82.7905 91.12 79.9158 91.12 76.6305V52.3265C91.12 48.9665 90.9333 46.0545 90.56 43.5905C90.1867 41.1265 90 39.8945 90 39.8945H101.984ZM95.936 28.4705C97.3547 28.4705 98.512 28.9558 99.408 29.9265C100.379 30.8225 100.864 31.9425 100.864 33.2865C100.864 34.6305 100.379 35.7878 99.408 36.7585C98.512 37.7292 97.3547 38.2145 95.936 38.2145C94.592 38.2145 93.4347 37.7292 92.464 36.7585C91.568 35.7878 91.12 34.6305 91.12 33.2865C91.12 31.9425 91.568 30.8225 92.464 29.9265C93.4347 28.9558 94.592 28.4705 95.936 28.4705ZM118.368 76.6305C118.368 79.9158 118.555 82.7905 118.928 85.2545C119.302 87.7185 119.488 88.9505 119.488 88.9505H107.504C107.504 88.9505 107.691 87.7185 108.064 85.2545C108.438 82.7905 108.624 79.9158 108.624 76.6305V52.3265C108.624 48.9665 108.438 46.0545 108.064 43.5905C107.691 41.1265 107.504 39.8945 107.504 39.8945H118.368V48.0705C120.608 46.8758 123.072 45.6812 125.76 44.4865C128.523 43.2172 131.36 42.1345 134.272 41.2385C137.259 40.3425 140.134 39.8945 142.896 39.8945C146.406 39.8945 149.094 40.5292 150.96 41.7985C152.827 43.0678 154.096 44.8598 154.768 47.1745C155.515 49.4892 155.888 52.2145 155.888 55.3505V76.6305C155.888 79.9158 156.075 82.7905 156.448 85.2545C156.822 87.7185 157.008 88.9505 157.008 88.9505H145.024C145.024 88.9505 145.211 87.7185 145.584 85.2545C145.958 82.7905 146.144 79.9158 146.144 76.6305V55.1265C146.144 50.0492 144.987 46.4278 142.672 44.2625C140.432 42.0225 136.699 41.8732 131.472 43.8145C129.083 44.6358 126.731 45.6065 124.416 46.7265C122.176 47.7718 120.16 48.7798 118.368 49.7505V76.6305Z" fill="#F5F1DD"/>
<path d="M168.127 77.4145C169.77 77.4145 171.151 77.9745 172.271 79.0945C173.391 80.2145 173.951 81.5958 173.951 83.2385C173.951 84.8065 173.391 86.1505 172.271 87.2705C171.151 88.3905 169.77 88.9505 168.127 88.9505C166.559 88.9505 165.215 88.3905 164.095 87.2705C162.975 86.1505 162.415 84.8065 162.415 83.2385C162.415 81.5958 162.975 80.2145 164.095 79.0945C165.215 77.9745 166.559 77.4145 168.127 77.4145Z" fill="#FBA327"/>
<path d="M95.212 106.472C96.892 106.472 98.7213 106.677 100.7 107.088C102.716 107.461 104.583 108.077 106.3 108.936L104.9 111.736C103.855 110.84 102.697 110.056 101.428 109.384C100.159 108.675 98.8147 108.133 97.396 107.76C95.044 107.125 92.972 107.107 91.18 107.704C89.388 108.301 88.0253 109.347 87.092 110.84C86.196 112.333 85.8413 114.125 86.028 116.216C86.2147 118.045 86.7933 119.837 87.764 121.592C88.7347 123.309 89.9853 124.765 91.516 125.96C93.084 127.117 94.82 127.827 96.724 128.088C97.844 128.237 98.964 128.163 100.084 127.864C101.241 127.528 102.324 126.949 103.332 126.128C104.863 124.821 105.833 123.179 106.244 121.2H107.028C106.655 123.067 105.871 124.747 104.676 126.24C103.481 127.696 102.025 128.853 100.308 129.712C98.5907 130.571 96.7427 131 94.764 131C92.5987 131 90.5827 130.477 88.716 129.432C86.8867 128.349 85.3933 126.875 84.236 125.008C83.0787 123.104 82.5 121.013 82.5 118.736C82.5 116.347 83.06 114.237 84.18 112.408C85.3373 110.541 86.868 109.085 88.772 108.04C90.7133 106.995 92.86 106.472 95.212 106.472ZM116.849 91.744C116.849 91.744 116.755 92.36 116.569 93.592C116.382 94.824 116.289 96.28 116.289 97.96V124.784C116.289 126.464 116.382 127.92 116.569 129.152C116.755 130.384 116.849 131 116.849 131H110.857C110.857 131 110.95 130.384 111.137 129.152C111.323 127.92 111.417 126.464 111.417 124.784V97.96C111.417 96.28 111.323 94.824 111.137 93.592C110.95 92.36 110.857 91.744 110.857 91.744H116.849ZM139.557 112.688C139.557 111.008 139.463 109.552 139.277 108.32C139.09 107.088 138.997 106.472 138.997 106.472H144.989C144.989 106.472 144.895 107.088 144.709 108.32C144.522 109.552 144.429 111.008 144.429 112.688V124.84C144.429 126.483 144.522 127.92 144.709 129.152C144.895 130.384 144.989 131 144.989 131H139.557V126.968C138.474 127.528 137.242 128.125 135.861 128.76C134.479 129.357 133.042 129.88 131.549 130.328C130.093 130.776 128.674 131 127.293 131C125.538 131 124.194 130.683 123.261 130.048C122.327 129.413 121.674 128.517 121.301 127.36C120.965 126.203 120.797 124.859 120.797 123.328V112.688C120.797 111.008 120.703 109.552 120.517 108.32C120.33 107.088 120.237 106.472 120.237 106.472H126.229C126.229 106.472 126.135 107.088 125.949 108.32C125.762 109.552 125.669 111.008 125.669 112.688V123.44C125.669 125.941 126.229 127.752 127.349 128.872C128.506 129.955 130.391 130.029 133.005 129.096C134.199 128.648 135.357 128.163 136.477 127.64C137.634 127.08 138.661 126.557 139.557 126.072V112.688ZM154.749 91.8C154.749 91.8 154.656 92.416 154.469 93.648C154.283 94.88 154.189 96.3173 154.189 97.96V112.072C155.309 110.093 156.672 108.675 158.277 107.816C159.92 106.92 161.656 106.472 163.485 106.472C165.651 106.472 167.499 107.032 169.029 108.152C170.56 109.235 171.736 110.691 172.557 112.52C173.379 114.349 173.789 116.403 173.789 118.68C173.789 120.92 173.304 122.973 172.333 124.84C171.363 126.707 170.056 128.2 168.413 129.32C166.808 130.44 165.035 131 163.093 131C161.712 131 160.368 130.664 159.061 129.992C157.755 129.32 156.616 128.2 155.645 126.632L156.933 123.832C157.045 124.653 157.307 125.568 157.717 126.576C158.165 127.547 158.744 128.405 159.453 129.152C160.2 129.861 161.077 130.216 162.085 130.216C163.616 130.216 164.885 129.637 165.893 128.48C166.901 127.285 167.648 125.773 168.133 123.944C168.656 122.115 168.917 120.211 168.917 118.232C168.917 116.328 168.675 114.536 168.189 112.856C167.741 111.176 167.032 109.813 166.061 108.768C165.128 107.723 163.915 107.219 162.421 107.256C161.339 107.256 160.237 107.629 159.117 108.376C157.997 109.085 156.989 110.075 156.093 111.344C155.235 112.576 154.6 114.013 154.189 115.656V131H148.757C148.757 131 148.851 130.384 149.037 129.152C149.224 127.92 149.317 126.483 149.317 124.84V97.96C149.317 96.3173 149.224 94.88 149.037 93.648C148.851 92.416 148.757 91.8 148.757 91.8H154.749Z" fill="#F5F1DD"/>
</svg>
