<svg width="189" height="150" viewBox="0 0 189 150" fill="none" xmlns="http://www.w3.org/2000/svg">
<path d="M10.712 39.1104C10.712 30.4491 12.952 23.5424 17.432 18.3904C21.912 13.1638 28.3333 10.5504 36.696 10.5504C37.9653 10.5504 39.4587 10.6624 41.176 10.8864C42.968 11.1104 44.648 11.4091 46.216 11.7824C47.784 12.0811 48.9413 12.4544 49.688 12.9024L46.888 18.5024C44.872 16.1878 42.2587 14.4704 39.048 13.3504C35.8373 12.1558 32.776 11.9691 29.864 12.7904C26.8027 13.6864 24.6 15.3664 23.256 17.8304C21.912 20.2944 21.0907 23.0571 20.792 26.1184C20.568 29.1051 20.456 31.9798 20.456 34.7424V39.8944H43.752V41.4624H20.456V76.6304C20.456 79.9158 20.6427 82.7904 21.016 85.2544C21.3893 87.7184 21.576 88.9504 21.576 88.9504H9.592C9.592 88.9504 9.77867 87.7184 10.152 85.2544C10.5253 82.7904 10.712 79.9158 10.712 76.6304V41.4624H5V39.8944H10.712V39.1104ZM49.1446 39.8944C49.1446 39.8944 48.958 41.1264 48.5846 43.5904C48.2113 46.0544 48.0246 48.9664 48.0246 52.3264V76.6304C48.0246 79.9158 48.2113 82.7904 48.5846 85.2544C48.958 87.7184 49.1446 88.9504 49.1446 88.9504H37.1606C37.1606 88.9504 37.3473 87.7184 37.7206 85.2544C38.094 82.7904 38.2806 79.9158 38.2806 76.6304V52.3264C38.2806 48.9664 38.094 46.0544 37.7206 43.5904C37.3473 41.1264 37.1606 39.8944 37.1606 39.8944H49.1446ZM43.0966 28.4704C44.5153 28.4704 45.6726 28.9558 46.5686 29.9264C47.5393 30.8224 48.0246 31.9424 48.0246 33.2864C48.0246 34.6304 47.5393 35.7878 46.5686 36.7584C45.6726 37.7291 44.5153 38.2144 43.0966 38.2144C41.7526 38.2144 40.5953 37.7291 39.6246 36.7584C38.7286 35.7878 38.2806 34.6304 38.2806 33.2864C38.2806 31.9424 38.7286 30.8224 39.6246 29.9264C40.5953 28.9558 41.7526 28.4704 43.0966 28.4704ZM56.905 41.4624H51.417V39.8944C53.5823 39.8944 55.673 39.1104 57.689 37.5424C59.705 35.9744 61.385 33.9584 62.729 31.4944C64.1477 29.0304 64.969 26.5291 65.193 23.9904H66.761V39.8944H76.729V41.4624H66.761V73.8304C66.761 75.2491 66.7983 77.0784 66.873 79.3184C67.0223 81.4838 67.5823 83.2011 68.553 84.4704C69.2997 85.5158 70.233 86.1131 71.353 86.2624C72.5477 86.4118 73.705 86.2624 74.825 85.8144C76.0197 85.3664 77.0277 84.8438 77.849 84.2464V85.1424C76.5797 86.6358 75.0117 87.6438 73.145 88.1664C71.353 88.6891 69.7103 88.9504 68.217 88.9504C60.6757 88.9504 56.905 83.8358 56.905 73.6064V41.4624Z" fill="#53603E"/>
<path d="M101.984 39.8944C101.984 39.8944 101.797 41.1264 101.424 43.5904C101.051 46.0544 100.864 48.9664 100.864 52.3264V76.6304C100.864 79.9158 101.051 82.7904 101.424 85.2544C101.797 87.7184 101.984 88.9504 101.984 88.9504H90C90 88.9504 90.1867 87.7184 90.56 85.2544C90.9333 82.7904 91.12 79.9158 91.12 76.6304V52.3264C91.12 48.9664 90.9333 46.0544 90.56 43.5904C90.1867 41.1264 90 39.8944 90 39.8944H101.984ZM95.936 28.4704C97.3547 28.4704 98.512 28.9558 99.408 29.9264C100.379 30.8224 100.864 31.9424 100.864 33.2864C100.864 34.6304 100.379 35.7878 99.408 36.7584C98.512 37.7291 97.3547 38.2144 95.936 38.2144C94.592 38.2144 93.4347 37.7291 92.464 36.7584C91.568 35.7878 91.12 34.6304 91.12 33.2864C91.12 31.9424 91.568 30.8224 92.464 29.9264C93.4347 28.9558 94.592 28.4704 95.936 28.4704ZM118.368 76.6304C118.368 79.9158 118.555 82.7904 118.928 85.2544C119.302 87.7184 119.488 88.9504 119.488 88.9504H107.504C107.504 88.9504 107.691 87.7184 108.064 85.2544C108.438 82.7904 108.624 79.9158 108.624 76.6304V52.3264C108.624 48.9664 108.438 46.0544 108.064 43.5904C107.691 41.1264 107.504 39.8944 107.504 39.8944H118.368V48.0704C120.608 46.8758 123.072 45.6811 125.76 44.4864C128.523 43.2171 131.36 42.1344 134.272 41.2384C137.259 40.3424 140.134 39.8944 142.896 39.8944C146.406 39.8944 149.094 40.5291 150.96 41.7984C152.827 43.0678 154.096 44.8598 154.768 47.1744C155.515 49.4891 155.888 52.2144 155.888 55.3504V76.6304C155.888 79.9158 156.075 82.7904 156.448 85.2544C156.822 87.7184 157.008 88.9504 157.008 88.9504H145.024C145.024 88.9504 145.211 87.7184 145.584 85.2544C145.958 82.7904 146.144 79.9158 146.144 76.6304V55.1264C146.144 50.0491 144.987 46.4278 142.672 44.2624C140.432 42.0224 136.699 41.8731 131.472 43.8144C129.083 44.6358 126.731 45.6064 124.416 46.7264C122.176 47.7718 120.16 48.7798 118.368 49.7504V76.6304Z" fill="#53603E"/>
<path d="M168.127 77.4144C169.77 77.4144 171.151 77.9744 172.271 79.0944C173.391 80.2144 173.951 81.5958 173.951 83.2384C173.951 84.8064 173.391 86.1504 172.271 87.2704C171.151 88.3904 169.77 88.9504 168.127 88.9504C166.559 88.9504 165.215 88.3904 164.095 87.2704C162.975 86.1504 162.415 84.8064 162.415 83.2384C162.415 81.5958 162.975 80.2144 164.095 79.0944C165.215 77.9744 166.559 77.4144 168.127 77.4144Z" fill="#FBA327"/>
<path d="M95.212 106.472C96.892 106.472 98.7213 106.677 100.7 107.088C102.716 107.461 104.583 108.077 106.3 108.936L104.9 111.736C103.855 110.84 102.697 110.056 101.428 109.384C100.159 108.675 98.8147 108.133 97.396 107.76C95.044 107.125 92.972 107.107 91.18 107.704C89.388 108.301 88.0253 109.347 87.092 110.84C86.196 112.333 85.8413 114.125 86.028 116.216C86.2147 118.045 86.7933 119.837 87.764 121.592C88.7347 123.309 89.9853 124.765 91.516 125.96C93.084 127.117 94.82 127.827 96.724 128.088C97.844 128.237 98.964 128.163 100.084 127.864C101.241 127.528 102.324 126.949 103.332 126.128C104.863 124.821 105.833 123.179 106.244 121.2H107.028C106.655 123.067 105.871 124.747 104.676 126.24C103.481 127.696 102.025 128.853 100.308 129.712C98.5907 130.571 96.7427 131 94.764 131C92.5987 131 90.5827 130.477 88.716 129.432C86.8867 128.349 85.3933 126.875 84.236 125.008C83.0787 123.104 82.5 121.013 82.5 118.736C82.5 116.347 83.06 114.237 84.18 112.408C85.3373 110.541 86.868 109.085 88.772 108.04C90.7133 106.995 92.86 106.472 95.212 106.472ZM116.849 91.744C116.849 91.744 116.755 92.36 116.569 93.592C116.382 94.824 116.289 96.28 116.289 97.96V124.784C116.289 126.464 116.382 127.92 116.569 129.152C116.755 130.384 116.849 131 116.849 131H110.857C110.857 131 110.95 130.384 111.137 129.152C111.323 127.92 111.417 126.464 111.417 124.784V97.96C111.417 96.28 111.323 94.824 111.137 93.592C110.95 92.36 110.857 91.744 110.857 91.744H116.849ZM139.557 112.688C139.557 111.008 139.463 109.552 139.277 108.32C139.09 107.088 138.997 106.472 138.997 106.472H144.989C144.989 106.472 144.895 107.088 144.709 108.32C144.522 109.552 144.429 111.008 144.429 112.688V124.84C144.429 126.483 144.522 127.92 144.709 129.152C144.895 130.384 144.989 131 144.989 131H139.557V126.968C138.474 127.528 137.242 128.125 135.861 128.76C134.479 129.357 133.042 129.88 131.549 130.328C130.093 130.776 128.674 131 127.293 131C125.538 131 124.194 130.683 123.261 130.048C122.327 129.413 121.674 128.517 121.301 127.36C120.965 126.203 120.797 124.859 120.797 123.328V112.688C120.797 111.008 120.703 109.552 120.517 108.32C120.33 107.088 120.237 106.472 120.237 106.472H126.229C126.229 106.472 126.135 107.088 125.949 108.32C125.762 109.552 125.669 111.008 125.669 112.688V123.44C125.669 125.941 126.229 127.752 127.349 128.872C128.506 129.955 130.391 130.029 133.005 129.096C134.199 128.648 135.357 128.163 136.477 127.64C137.634 127.08 138.661 126.557 139.557 126.072V112.688ZM154.749 91.8C154.749 91.8 154.656 92.416 154.469 93.648C154.283 94.88 154.189 96.3173 154.189 97.96V112.072C155.309 110.093 156.672 108.675 158.277 107.816C159.92 106.92 161.656 106.472 163.485 106.472C165.651 106.472 167.499 107.032 169.029 108.152C170.56 109.235 171.736 110.691 172.557 112.52C173.379 114.349 173.789 116.403 173.789 118.68C173.789 120.92 173.304 122.973 172.333 124.84C171.363 126.707 170.056 128.2 168.413 129.32C166.808 130.44 165.035 131 163.093 131C161.712 131 160.368 130.664 159.061 129.992C157.755 129.32 156.616 128.2 155.645 126.632L156.933 123.832C157.045 124.653 157.307 125.568 157.717 126.576C158.165 127.547 158.744 128.405 159.453 129.152C160.2 129.861 161.077 130.216 162.085 130.216C163.616 130.216 164.885 129.637 165.893 128.48C166.901 127.285 167.648 125.773 168.133 123.944C168.656 122.115 168.917 120.211 168.917 118.232C168.917 116.328 168.675 114.536 168.189 112.856C167.741 111.176 167.032 109.813 166.061 108.768C165.128 107.723 163.915 107.219 162.421 107.256C161.339 107.256 160.237 107.629 159.117 108.376C157.997 109.085 156.989 110.075 156.093 111.344C155.235 112.576 154.6 114.013 154.189 115.656V131H148.757C148.757 131 148.851 130.384 149.037 129.152C149.224 127.92 149.317 126.483 149.317 124.84V97.96C149.317 96.3173 149.224 94.88 149.037 93.648C148.851 92.416 148.757 91.8 148.757 91.8H154.749Z" fill="#53603E"/>
</svg>
